<svg xmlns="http://www.w3.org/2000/svg" xmlns:xlink="http://www.w3.org/1999/xlink" viewBox="0 0 133 133"><g id="ss12708107028_1"><path d="M 0 0 L 133 0 L 133 133 L 0 133 Z" fill="transparent"></path><path d="M 103.906 12.469 C 101.611 12.469 99.75 14.33 99.75 16.625 C 99.75 18.92 101.611 20.781 103.906 20.781 C 106.202 20.781 108.063 18.92 108.063 16.625 C 108.063 14.33 106.202 12.469 103.906 12.469 Z M 91.438 12.469 C 89.142 12.469 87.281 14.33 87.281 16.625 C 87.281 18.92 89.142 20.781 91.438 20.781 C 93.733 20.781 95.594 18.92 95.594 16.625 C 95.594 14.33 93.733 12.469 91.438 12.469 Z M 54.031 12.469 C 51.736 12.469 49.875 14.33 49.875 16.625 C 49.875 18.92 51.736 20.781 54.031 20.781 C 56.327 20.781 58.188 18.92 58.188 16.625 C 58.188 14.33 56.327 12.469 54.031 12.469 Z M 41.563 12.469 C 39.267 12.469 37.406 14.33 37.406 16.625 C 37.406 18.92 39.267 20.781 41.563 20.781 C 43.858 20.781 45.719 18.92 45.719 16.625 C 45.719 14.33 43.858 12.469 41.563 12.469 Z M 29.094 12.469 C 26.798 12.469 24.938 14.33 24.938 16.625 C 24.938 18.92 26.798 20.781 29.094 20.781 C 31.389 20.781 33.25 18.92 33.25 16.625 C 33.25 14.33 31.389 12.469 29.094 12.469 Z M 116.375 24.938 C 114.08 24.938 112.219 26.798 112.219 29.094 C 112.219 31.389 114.08 33.25 116.375 33.25 C 118.67 33.25 120.531 31.389 120.531 29.094 C 120.531 26.798 118.67 24.938 116.375 24.938 Z M 103.906 24.938 C 101.611 24.938 99.75 26.798 99.75 29.094 C 99.75 31.389 101.611 33.25 103.906 33.25 C 106.202 33.25 108.063 31.389 108.063 29.094 C 108.063 26.798 106.202 24.938 103.906 24.938 Z M 91.438 24.938 C 89.142 24.938 87.281 26.798 87.281 29.094 C 87.281 31.389 89.142 33.25 91.438 33.25 C 93.733 33.25 95.594 31.389 95.594 29.094 C 95.594 26.798 93.733 24.938 91.438 24.938 Z M 54.031 24.938 C 51.736 24.938 49.875 26.798 49.875 29.094 C 49.875 31.389 51.736 33.25 54.031 33.25 C 56.327 33.25 58.188 31.389 58.188 29.094 C 58.188 26.798 56.327 24.938 54.031 24.938 Z M 41.563 24.938 C 39.267 24.938 37.406 26.798 37.406 29.094 C 37.406 31.389 39.267 33.25 41.563 33.25 C 43.858 33.25 45.719 31.389 45.719 29.094 C 45.719 26.798 43.858 24.938 41.563 24.938 Z M 29.094 24.938 C 26.798 24.938 24.938 26.798 24.938 29.094 C 24.938 31.389 26.798 33.25 29.094 33.25 C 31.389 33.25 33.25 31.389 33.25 29.094 C 33.25 26.798 31.389 24.938 29.094 24.938 Z M 16.625 24.938 C 14.33 24.938 12.469 26.798 12.469 29.094 C 12.469 31.389 14.33 33.25 16.625 33.25 C 18.92 33.25 20.781 31.389 20.781 29.094 C 20.781 26.798 18.92 24.938 16.625 24.938 Z M 116.375 37.406 C 114.08 37.406 112.219 39.267 112.219 41.563 C 112.219 43.858 114.08 45.719 116.375 45.719 C 118.67 45.719 120.531 43.858 120.531 41.563 C 120.531 39.267 118.67 37.406 116.375 37.406 Z M 103.906 37.406 C 101.611 37.406 99.75 39.267 99.75 41.563 C 99.75 43.858 101.611 45.719 103.906 45.719 C 106.202 45.719 108.063 43.858 108.063 41.563 C 108.063 39.267 106.202 37.406 103.906 37.406 Z M 91.438 37.406 C 89.142 37.406 87.281 39.267 87.281 41.563 C 87.281 43.858 89.142 45.719 91.438 45.719 C 93.733 45.719 95.594 43.858 95.594 41.563 C 95.594 39.267 93.733 37.406 91.438 37.406 Z M 54.031 37.406 C 51.736 37.406 49.875 39.267 49.875 41.563 C 49.875 43.858 51.736 45.719 54.031 45.719 C 56.327 45.719 58.188 43.858 58.188 41.563 C 58.188 39.267 56.327 37.406 54.031 37.406 Z M 41.563 37.406 C 39.267 37.406 37.406 39.267 37.406 41.563 C 37.406 43.858 39.267 45.719 41.563 45.719 C 43.858 45.719 45.719 43.858 45.719 41.563 C 45.719 39.267 43.858 37.406 41.563 37.406 Z M 29.094 37.406 C 26.798 37.406 24.938 39.267 24.938 41.563 C 24.938 43.858 26.798 45.719 29.094 45.719 C 31.389 45.719 33.25 43.858 33.25 41.563 C 33.25 39.267 31.389 37.406 29.094 37.406 Z M 16.625 37.406 C 14.33 37.406 12.469 39.267 12.469 41.563 C 12.469 43.858 14.33 45.719 16.625 45.719 C 18.92 45.719 20.781 43.858 20.781 41.563 C 20.781 39.267 18.92 37.406 16.625 37.406 Z M 4.156 37.406 C 1.861 37.406 0 39.267 0 41.563 C 0 43.858 1.861 45.719 4.156 45.719 C 6.452 45.719 8.313 43.858 8.313 41.563 C 8.313 39.267 6.452 37.406 4.156 37.406 Z M 78.969 12.469 C 76.673 12.469 74.813 14.33 74.813 16.625 C 74.813 18.92 76.673 20.781 78.969 20.781 C 81.264 20.781 83.125 18.92 83.125 16.625 C 83.125 14.33 81.264 12.469 78.969 12.469 Z M 66.5 12.469 C 64.205 12.469 62.344 14.33 62.344 16.625 C 62.344 18.92 64.205 20.781 66.5 20.781 C 68.795 20.781 70.656 18.92 70.656 16.625 C 70.656 14.33 68.795 12.469 66.5 12.469 Z M 78.969 24.938 C 76.673 24.938 74.813 26.798 74.813 29.094 C 74.813 31.389 76.673 33.25 78.969 33.25 C 81.264 33.25 83.125 31.389 83.125 29.094 C 83.125 26.798 81.264 24.938 78.969 24.938 Z M 66.5 24.938 C 64.205 24.938 62.344 26.798 62.344 29.094 C 62.344 31.389 64.205 33.25 66.5 33.25 C 68.795 33.25 70.656 31.389 70.656 29.094 C 70.656 26.798 68.795 24.938 66.5 24.938 Z M 78.969 37.406 C 76.673 37.406 74.813 39.267 74.813 41.563 C 74.813 43.858 76.673 45.719 78.969 45.719 C 81.264 45.719 83.125 43.858 83.125 41.563 C 83.125 39.267 81.264 37.406 78.969 37.406 Z M 66.5 37.406 C 64.205 37.406 62.344 39.267 62.344 41.563 C 62.344 43.858 64.205 45.719 66.5 45.719 C 68.795 45.719 70.656 43.858 70.656 41.563 C 70.656 39.267 68.795 37.406 66.5 37.406 Z M 128.844 37.406 C 126.548 37.406 124.688 39.267 124.688 41.563 C 124.688 43.858 126.548 45.719 128.844 45.719 C 131.139 45.719 133 43.858 133 41.563 C 133 39.267 131.139 37.406 128.844 37.406 Z M 116.375 74.813 C 114.08 74.813 112.219 76.673 112.219 78.969 C 112.219 81.264 114.08 83.125 116.375 83.125 C 118.67 83.125 120.531 81.264 120.531 78.969 C 120.531 76.673 118.67 74.813 116.375 74.813 Z M 103.906 74.813 C 101.611 74.813 99.75 76.673 99.75 78.969 C 99.75 81.264 101.611 83.125 103.906 83.125 C 106.202 83.125 108.063 81.264 108.063 78.969 C 108.063 76.673 106.202 74.813 103.906 74.813 Z M 91.438 74.813 C 89.142 74.813 87.281 76.673 87.281 78.969 C 87.281 81.264 89.142 83.125 91.438 83.125 C 93.733 83.125 95.594 81.264 95.594 78.969 C 95.594 76.673 93.733 74.813 91.438 74.813 Z M 54.031 74.813 C 51.736 74.813 49.875 76.673 49.875 78.969 C 49.875 81.264 51.736 83.125 54.031 83.125 C 56.327 83.125 58.188 81.264 58.188 78.969 C 58.188 76.673 56.327 74.813 54.031 74.813 Z M 41.563 74.813 C 39.267 74.813 37.406 76.673 37.406 78.969 C 37.406 81.264 39.267 83.125 41.563 83.125 C 43.858 83.125 45.719 81.264 45.719 78.969 C 45.719 76.673 43.858 74.813 41.563 74.813 Z M 29.094 74.813 C 26.798 74.813 24.938 76.673 24.938 78.969 C 24.938 81.264 26.798 83.125 29.094 83.125 C 31.389 83.125 33.25 81.264 33.25 78.969 C 33.25 76.673 31.389 74.813 29.094 74.813 Z M 16.625 74.813 C 14.33 74.813 12.469 76.673 12.469 78.969 C 12.469 81.264 14.33 83.125 16.625 83.125 C 18.92 83.125 20.781 81.264 20.781 78.969 C 20.781 76.673 18.92 74.813 16.625 74.813 Z M 4.156 74.813 C 1.861 74.813 0 76.673 0 78.969 C 0 81.264 1.861 83.125 4.156 83.125 C 6.452 83.125 8.313 81.264 8.313 78.969 C 8.313 76.673 6.452 74.813 4.156 74.813 Z M 78.969 74.813 C 76.673 74.813 74.813 76.673 74.813 78.969 C 74.813 81.264 76.673 83.125 78.969 83.125 C 81.264 83.125 83.125 81.264 83.125 78.969 C 83.125 76.673 81.264 74.813 78.969 74.813 Z M 66.5 74.813 C 64.205 74.813 62.344 76.673 62.344 78.969 C 62.344 81.264 64.205 83.125 66.5 83.125 C 68.795 83.125 70.656 81.264 70.656 78.969 C 70.656 76.673 68.795 74.813 66.5 74.813 Z M 128.844 74.813 C 126.548 74.813 124.688 76.673 124.688 78.969 C 124.688 81.264 126.548 83.125 128.844 83.125 C 131.139 83.125 133 81.264 133 78.969 C 133 76.673 131.139 74.813 128.844 74.813 Z M 16.625 62.344 C 14.33 62.344 12.469 64.205 12.469 66.5 C 12.469 68.795 14.33 70.656 16.625 70.656 C 18.92 70.656 20.781 68.795 20.781 66.5 C 20.781 64.205 18.92 62.344 16.625 62.344 Z M 29.094 49.875 C 26.798 49.875 24.938 51.736 24.938 54.031 C 24.938 56.327 26.798 58.188 29.094 58.188 C 31.389 58.188 33.25 56.327 33.25 54.031 C 33.25 51.736 31.389 49.875 29.094 49.875 Z M 116.375 62.344 C 114.08 62.344 112.219 64.205 112.219 66.5 C 112.219 68.795 114.08 70.656 116.375 70.656 C 118.67 70.656 120.531 68.795 120.531 66.5 C 120.531 64.205 118.67 62.344 116.375 62.344 Z M 116.375 112.219 C 114.08 112.219 112.219 114.08 112.219 116.375 C 112.219 118.67 114.08 120.531 116.375 120.531 C 118.67 120.531 120.531 118.67 120.531 116.375 C 120.531 114.08 118.67 112.219 116.375 112.219 Z M 103.906 112.219 C 101.611 112.219 99.75 114.08 99.75 116.375 C 99.75 118.67 101.611 120.531 103.906 120.531 C 106.202 120.531 108.063 118.67 108.063 116.375 C 108.063 114.08 106.202 112.219 103.906 112.219 Z M 91.438 112.219 C 89.142 112.219 87.281 114.08 87.281 116.375 C 87.281 118.67 89.142 120.531 91.438 120.531 C 93.733 120.531 95.594 118.67 95.594 116.375 C 95.594 114.08 93.733 112.219 91.438 112.219 Z M 54.031 112.219 C 51.736 112.219 49.875 114.08 49.875 116.375 C 49.875 118.67 51.736 120.531 54.031 120.531 C 56.327 120.531 58.188 118.67 58.188 116.375 C 58.188 114.08 56.327 112.219 54.031 112.219 Z M 41.563 112.219 C 39.267 112.219 37.406 114.08 37.406 116.375 C 37.406 118.67 39.267 120.531 41.563 120.531 C 43.858 120.531 45.719 118.67 45.719 116.375 C 45.719 114.08 43.858 112.219 41.563 112.219 Z M 29.094 112.219 C 26.798 112.219 24.938 114.08 24.938 116.375 C 24.938 118.67 26.798 120.531 29.094 120.531 C 31.389 120.531 33.25 118.67 33.25 116.375 C 33.25 114.08 31.389 112.219 29.094 112.219 Z M 16.625 112.219 C 14.33 112.219 12.469 114.08 12.469 116.375 C 12.469 118.67 14.33 120.531 16.625 120.531 C 18.92 120.531 20.781 118.67 20.781 116.375 C 20.781 114.08 18.92 112.219 16.625 112.219 Z M 4.156 112.219 C 1.861 112.219 0 114.08 0 116.375 C 0 118.67 1.861 120.531 4.156 120.531 C 6.452 120.531 8.313 118.67 8.313 116.375 C 8.313 114.08 6.452 112.219 4.156 112.219 Z M 78.969 112.219 C 76.673 112.219 74.813 114.08 74.813 116.375 C 74.813 118.67 76.673 120.531 78.969 120.531 C 81.264 120.531 83.125 118.67 83.125 116.375 C 83.125 114.08 81.264 112.219 78.969 112.219 Z M 66.5 112.219 C 64.205 112.219 62.344 114.08 62.344 116.375 C 62.344 118.67 64.205 120.531 66.5 120.531 C 68.795 120.531 70.656 118.67 70.656 116.375 C 70.656 114.08 68.795 112.219 66.5 112.219 Z M 128.844 112.219 C 126.548 112.219 124.688 114.08 124.688 116.375 C 124.688 118.67 126.548 120.531 128.844 120.531 C 131.139 120.531 133 118.67 133 116.375 C 133 114.08 131.139 112.219 128.844 112.219 Z M 16.625 99.75 C 14.33 99.75 12.469 101.611 12.469 103.906 C 12.469 106.202 14.33 108.063 16.625 108.063 C 18.92 108.063 20.781 106.202 20.781 103.906 C 20.781 101.611 18.92 99.75 16.625 99.75 Z M 29.094 87.281 C 26.798 87.281 24.938 89.142 24.938 91.438 C 24.938 93.733 26.798 95.594 29.094 95.594 C 31.389 95.594 33.25 93.733 33.25 91.438 C 33.25 89.142 31.389 87.281 29.094 87.281 Z M 103.906 49.875 C 101.611 49.875 99.75 51.736 99.75 54.031 C 99.75 56.327 101.611 58.188 103.906 58.188 C 106.202 58.188 108.063 56.327 108.063 54.031 C 108.063 51.736 106.202 49.875 103.906 49.875 Z M 103.906 87.281 C 101.611 87.281 99.75 89.142 99.75 91.438 C 99.75 93.733 101.611 95.594 103.906 95.594 C 106.202 95.594 108.063 93.733 108.063 91.438 C 108.063 89.142 106.202 87.281 103.906 87.281 Z M 116.375 99.75 C 114.08 99.75 112.219 101.611 112.219 103.906 C 112.219 106.202 114.08 108.063 116.375 108.063 C 118.67 108.063 120.531 106.202 120.531 103.906 C 120.531 101.611 118.67 99.75 116.375 99.75 Z" fill="rgb(39,43,39)"></path></g></svg>