<svg xmlns="http://www.w3.org/2000/svg" width="500" height="500" fill="none"><g clip-path="url(#a)"><path fill="#5E6AD2" d="M250 500c138.071 0 250-111.929 250-250S388.071 0 250 0 0 111.929 0 250s111.929 250 250 250Z"/><g clip-path="url(#b)"><path fill="#fff" d="M79.289 290.33c-.779-3.32 3.176-5.411 5.587-3L212.67 415.124c2.411 2.411.32 6.366-3 5.587C145.18 405.583 94.417 354.82 79.289 290.33Zm-4.282-51.218a3.465 3.465 0 0 0 1.013 2.662L258.226 423.98a3.46 3.46 0 0 0 2.662 1.013 175.3 175.3 0 0 0 24.369-3.24c2.675-.55 3.605-3.837 1.673-5.769L84.016 213.07c-1.932-1.932-5.22-1.002-5.769 1.673a175.25 175.25 0 0 0-3.24 24.369Zm14.731-60.143a3.458 3.458 0 0 0 .727 3.85l226.716 226.716a3.459 3.459 0 0 0 3.85.727 174.853 174.853 0 0 0 18.149-9.394c1.933-1.148 2.231-3.804.642-5.393L104.525 160.178c-1.59-1.589-4.245-1.291-5.393.642a174.62 174.62 0 0 0-9.394 18.149Zm29.567-40.71c-1.295-1.295-1.375-3.373-.155-4.739C151.228 97.608 197.89 75 249.832 75 346.574 75 425 153.426 425 250.168c0 51.942-22.608 98.604-58.52 130.681-1.366 1.221-3.444 1.141-4.739-.155L119.305 138.259Z"/></g></g><defs><clipPath id="a"><path fill="#fff" d="M0 0h500v500H0z"/></clipPath><clipPath id="b"><path fill="#fff" d="M75 75h350v350H75z"/></clipPath></defs></svg>