<svg xmlns="http://www.w3.org/2000/svg" width="457" height="70" fill="none"><path fill="#fff" fill-rule="evenodd" d="M59.231 10.874 38.658 25.958a7.069 7.069 0 0 0-2.889 5.701v6.867c0 2.258 1.08 4.38 2.904 5.711L58.77 58.891a34.782 34.782 0 0 0 4.623-5.855L43.82 38.763h24.613a34.995 34.995 0 0 0 .096-7.33h-24.72l19.932-14.616a34.756 34.756 0 0 0-4.51-5.943ZM0 31.862v-7.455h19.321L0 5.397V.12h5.64l19.347 19.035V.119h7.977v26.426c0 1.432-.62 2.791-1.7 3.782-1.075.989-2.523 1.535-4.019 1.535H0Zm0 5.547h27.245c1.496 0 2.944.546 4.02 1.535 1.079.99 1.699 2.35 1.699 3.782v26.426h-7.977V50.117L5.64 69.152H0v-5.279l19.321-19.01H0V37.41Zm119.208-10.103V8.822h8.492v51.74h-8.492v-5.067c-2.427 3.997-6.233 5.995-11.419 5.995-4.71 0-8.683-1.832-11.918-5.495-3.187-3.711-4.781-8.588-4.781-14.63 0-5.995 1.594-10.824 4.781-14.487 3.236-3.711 7.208-5.567 11.918-5.567 5.186 0 8.992 1.998 11.419 5.995Zm-2.427 23.836c1.856-2.284 2.784-5.543 2.784-9.777 0-4.235-.928-7.47-2.784-9.706-1.855-2.284-4.234-3.425-7.136-3.425-2.855 0-5.186 1.213-6.994 3.64-1.808 2.378-2.712 5.542-2.712 9.49 0 4.045.88 7.256 2.641 9.635 1.808 2.379 4.163 3.568 7.065 3.568s5.281-1.142 7.136-3.425Zm25.431-42.32h-8.492v8.564h8.492V8.822Zm0 13.346h-8.492v38.394h8.492V22.168ZM244.216 8.822h-8.492v8.564h8.492V8.822Zm0 13.346h-8.492v38.394h8.492V22.168Zm16.909 9.491c-1.856 2.236-2.783 5.471-2.783 9.706 0 4.234.927 7.493 2.783 9.777 1.855 2.283 4.234 3.425 7.136 3.425 2.903 0 5.234-1.19 6.994-3.568 1.808-2.379 2.712-5.59 2.712-9.634 0-3.95-.904-7.113-2.712-9.492-1.808-2.426-4.139-3.64-6.994-3.64-2.902 0-5.281 1.142-7.136 3.426ZM250.206 8.822h8.492v18.484c2.427-3.997 6.233-5.995 11.419-5.995 4.71 0 8.659 1.856 11.846 5.567 3.236 3.663 4.853 8.492 4.853 14.487 0 6.042-1.617 10.919-4.853 14.63-3.187 3.663-7.136 5.495-11.846 5.495-5.186 0-8.992-1.998-11.419-5.995v5.067h-8.492V8.822Zm82.567 13.346V12.034h8.492v10.133h7.708v6.138h-7.708v20.91c0 1.95.31 3.259.928 3.925.619.618 1.832.928 3.64.928h3.069v6.494h-6.281c-.669 0-1.3-.018-1.894-.055v-4.042a2.731 2.731 0 0 0-2.731-2.732h-5.057a28.39 28.39 0 0 1-.166-3.234V28.305h-5.709v-6.137h5.709Zm54.819 21.623h-28.618c.286 3.378 1.428 5.995 3.426 7.85 2.046 1.856 4.377 2.784 6.994 2.784 4.805 0 7.945-1.785 9.42-5.353h8.35c-.952 3.426-2.95 6.352-5.995 8.778-2.997 2.426-6.804 3.64-11.419 3.64-5.947 0-10.68-1.951-14.201-5.852-3.473-3.95-5.21-8.802-5.21-14.559s1.76-10.49 5.281-14.201c3.568-3.711 8.088-5.567 13.56-5.567 5.851 0 10.466 2.141 13.844 6.423 3.426 4.234 4.948 9.587 4.568 16.057ZM369.18 27.948c-2.379 0-4.592.785-6.637 2.355-1.999 1.57-3.188 3.997-3.569 7.28h19.983c-.096-2.903-1.095-5.234-2.998-6.994-1.903-1.76-4.163-2.64-6.779-2.64Zm-54.381 27.333v5.28h8.493V22.168h-8.493V42.65c0 7.946-2.878 11.918-8.635 11.918-1.522 0-2.783-.261-3.782-.785a5.217 5.217 0 0 1-2.213-2.426 14.031 14.031 0 0 1-.856-3.212c-.143-1.046-.214-2.33-.214-3.853V22.168h-8.493V46.36c0 10.087 4.282 15.13 12.846 15.13 5.281 0 9.064-2.07 11.347-6.21Zm-84.473-33.042v8.564a40.972 40.972 0 0 0-4.068-.214c-2.855 0-4.972.737-6.352 2.212-1.379 1.427-2.069 3.973-2.069 7.636v20.125h-8.493V22.167h8.35v6.852c2.189-4.52 5.662-6.828 10.419-6.923.619 0 1.356.048 2.213.143Zm-42.444-10.205v10.133h-5.71v6.138h5.71v22.194c0 3.997.618 6.685 1.855 8.065 1.285 1.332 3.949 1.998 7.993 1.998h6.28v-6.494h-3.069c-1.807 0-3.021-.31-3.639-.928-.619-.666-.928-1.974-.928-3.925v-20.91h7.708v-6.137h-7.708V12.034h-8.492Zm-8.451 20.624h-7.992c-.857-3.235-3.664-4.853-8.421-4.853-1.951 0-3.64.405-5.067 1.214-1.38.76-2.07 1.76-2.07 2.997 0 2.379 1.713 3.901 5.138 4.567l5.424 1.07c2.141.429 3.949.905 5.424 1.428a17.582 17.582 0 0 1 4.282 1.998c1.332.857 2.331 1.95 2.997 3.283.666 1.332.999 2.902.999 4.71 0 3.854-1.57 6.899-4.71 9.135-3.14 2.188-6.994 3.283-11.561 3.283-4.615 0-8.421-1.166-11.419-3.497-2.997-2.38-4.733-5.424-5.209-9.135h8.278c.809 4.14 3.687 6.209 8.635 6.209 2.284 0 4.14-.452 5.567-1.356 1.427-.904 2.141-2.117 2.141-3.64 0-2.616-2.213-4.377-6.637-5.28l-5.781-1.143c-3.616-.76-6.446-1.998-8.492-3.71-2.046-1.713-3.069-4.211-3.069-7.494 0-3.283 1.523-5.947 4.567-7.993 3.093-2.093 6.78-3.14 11.062-3.14 3.949 0 7.398.976 10.348 2.926 2.95 1.95 4.805 4.758 5.566 8.421Z" clip-rule="evenodd"/><path fill="#fff" d="M399.796 61h-9.792v-9.792h9.792V61Zm29.681-15.264v-2.952c-6.24.576-10.68 1.416-13.32 2.52-2.592 1.056-3.888 2.664-3.888 4.824 0 1.68.648 3 1.944 3.96 1.296.96 3.024 1.44 5.184 1.44 3.216 0 5.688-.816 7.416-2.448 1.776-1.632 2.664-4.08 2.664-7.344Zm-11.952 16.2c-4.224 0-7.68-1.056-10.368-3.168-2.64-2.112-3.96-4.92-3.96-8.424 0-1.584.288-3 .864-4.248.624-1.248 1.56-2.328 2.808-3.24a20.882 20.882 0 0 1 4.032-2.304c1.44-.672 3.216-1.248 5.328-1.728 2.16-.48 4.2-.864 6.12-1.152 1.968-.288 4.272-.576 6.912-.864v-.72c0-5.76-2.688-8.64-8.064-8.64-2.256 0-4.104.6-5.544 1.8-1.392 1.2-2.136 2.928-2.232 5.184h-8.424c.288-3.936 1.944-7.128 4.968-9.576 3.024-2.496 6.864-3.744 11.52-3.744 5.04 0 9.048 1.32 12.024 3.96 2.976 2.592 4.416 6.816 4.32 12.672 0 .48-.024 1.944-.072 4.392-.048 2.448-.072 4.32-.072 5.616 0 5.712.384 10.128 1.152 13.248h-7.848c-.384-2.112-.624-3.864-.72-5.256-2.448 4.128-6.696 6.192-12.744 6.192ZM443.613 8.8h8.568v8.64h-8.568V8.8Zm0 13.464h8.568V61h-8.568V22.264Z"/></svg>